<svg xmlns="http://www.w3.org/2000/svg" width="65.449" height="79.87" viewBox="0 0 65.449 79.87">
  <g id="Group_5" data-name="Group 5" transform="translate(-113 -643.385)">
    <path id="Path_50" data-name="Path 50" d="M120.764,668.9a2.218,2.218,0,0,1,2.219-2.218h31.06a2.218,2.218,0,0,1,2.219,2.218v53.247h-35.5Z" fill="#1c3b71"/>
    <line id="Line_2" data-name="Line 2" x2="49.919" transform="translate(113 722.146)" fill="none" stroke="#1c3b71" stroke-width="2.219"/>
    <rect id="Rectangle_12" data-name="Rectangle 12" width="8.874" height="8.874" transform="translate(127.422 671.119)" fill="#fff"/>
    <rect id="Rectangle_13" data-name="Rectangle 13" width="8.874" height="8.874" transform="translate(127.422 684.428)" fill="#fff"/>
    <rect id="Rectangle_14" data-name="Rectangle 14" width="8.874" height="8.874" transform="translate(127.422 697.741)" fill="#fff"/>
    <rect id="Rectangle_15" data-name="Rectangle 15" width="8.874" height="8.874" transform="translate(140.732 671.119)" fill="#fff"/>
    <rect id="Rectangle_16" data-name="Rectangle 16" width="8.874" height="8.874" transform="translate(140.732 684.428)" fill="#fff"/>
    <rect id="Rectangle_17" data-name="Rectangle 17" width="8.874" height="8.874" transform="translate(140.732 697.741)" fill="#fff"/>
    <rect id="Rectangle_18" data-name="Rectangle 18" width="22.186" height="8.874" transform="translate(127.422 712.163)" fill="#fff"/>
    <path id="Path_51" data-name="Path 51" d="M154.739,659.609a8.736,8.736,0,0,1,8.735,8.736" fill="none" stroke="#1c3b71" stroke-width="2.496"/>
    <path id="Path_52" data-name="Path 52" d="M155.986,652.122a13.729,13.729,0,0,1,13.727,13.728" fill="none" stroke="#1c3b71" stroke-width="2.496"/>
    <path id="Path_53" data-name="Path 53" d="M158.481,644.633a18.72,18.72,0,0,1,18.72,18.72" fill="none" stroke="#1c3b71" stroke-width="2.496"/>
  </g>
</svg>
