<svg xmlns="http://www.w3.org/2000/svg" width="77.469" height="52.177" viewBox="0 0 77.469 52.177">
  <g id="Group_11" data-name="Group 11" transform="translate(-403.74 -546.512)">
    <path id="Path_83" data-name="Path 83" d="M429.3,596.56a61.477,61.477,0,0,0,15.624-1.792,18.842,18.842,0,0,0,5.16-2.129,4.448,4.448,0,0,0,0-8.131,18.809,18.809,0,0,0-5.16-2.129,69,69,0,0,0-31.248,0,18.823,18.823,0,0,0-5.16,2.129,4.448,4.448,0,0,0,0,8.131,18.855,18.855,0,0,0,5.16,2.129A61.477,61.477,0,0,0,429.3,596.56Z" fill="#1c3b71" stroke="#fff" stroke-width="4.259"/>
    <path id="Path_84" data-name="Path 84" d="M429.3,585.912a61.526,61.526,0,0,0,15.624-1.791,18.841,18.841,0,0,0,5.16-2.13,4.448,4.448,0,0,0,0-8.13,18.841,18.841,0,0,0-5.16-2.13,69.044,69.044,0,0,0-31.248,0,18.855,18.855,0,0,0-5.16,2.13,4.448,4.448,0,0,0,0,8.13,18.855,18.855,0,0,0,5.16,2.13A61.526,61.526,0,0,0,429.3,585.912Z" fill="#1c3b71" stroke="#fff" stroke-width="4.259"/>
    <path id="Path_85" data-name="Path 85" d="M429.3,575.263a61.529,61.529,0,0,0,15.624-1.791,18.841,18.841,0,0,0,5.16-2.13,4.448,4.448,0,0,0,0-8.13,18.843,18.843,0,0,0-5.16-2.13,69.046,69.046,0,0,0-31.248,0,18.857,18.857,0,0,0-5.16,2.13,4.448,4.448,0,0,0,0,8.13,18.855,18.855,0,0,0,5.16,2.13A61.529,61.529,0,0,0,429.3,575.263Z" fill="#1c3b71" stroke="#fff" stroke-width="4.259"/>
    <path id="Path_86" data-name="Path 86" d="M429.3,564.615a61.477,61.477,0,0,0,15.624-1.792,18.809,18.809,0,0,0,5.16-2.129,4.448,4.448,0,0,0,0-8.131,18.842,18.842,0,0,0-5.16-2.129,69.007,69.007,0,0,0-31.248,0,18.855,18.855,0,0,0-5.16,2.129,4.448,4.448,0,0,0,0,8.131,18.823,18.823,0,0,0,5.16,2.129A61.477,61.477,0,0,0,429.3,564.615Z" fill="#1c3b71" stroke="#fff" stroke-width="4.259"/>
    <path id="Path_87" data-name="Path 87" d="M420.84,557.074l10.431-2.328,2.173,1.379-10.431,2.328Zm11.6-2.589,2.684-.6,2.173,1.38-2.685.6Z" fill="#fff"/>
    <path id="Path_88" data-name="Path 88" d="M459.912,593.366a18.635,18.635,0,1,0-18.635-18.635A18.635,18.635,0,0,0,459.912,593.366Z" fill="#1c3b71" stroke="#fff" stroke-width="5.324"/>
    <path id="Path_89" data-name="Path 89" d="M458.675,582.25V571.562h2.574V582.25Zm0-11.887v-2.75h2.574v2.75Z" fill="#fff"/>
  </g>
</svg>
