<svg width="1226" height="370" viewBox="0 0 1226 370" fill="none" xmlns="http://www.w3.org/2000/svg">
<path d="M1202.51 181.058C1202.29 180.828 1180.04 158.208 1135.66 133.788C1094.69 111.258 1025.95 82.548 931.11 73.758C826.84 64.088 746.8 95.938 669.41 126.748C611.1 149.958 550.8 173.948 481.67 178.888C364.94 187.218 269.66 162.818 200.08 144.988C174.42 138.418 152.25 132.738 133.93 129.978C69.6 120.308 0.94 138.308 0.26 138.488L0 137.518C0.69 137.338 69.54 119.278 134.06 128.988C152.44 131.758 174.62 137.438 200.31 144.018C269.82 161.828 365.02 186.208 481.58 177.888C550.56 172.958 610.78 148.998 669.02 125.818C746.54 94.968 826.67 63.078 931.2 72.768C1026.23 81.578 1095.12 110.348 1136.18 132.938C1180.68 157.428 1203.01 180.138 1203.23 180.358L1202.51 181.058Z" fill="#1C3B71"/>
<path d="M1205 201.998C1201.09 198.398 1107.32 113.538 931.79 98.5081C903.59 96.1981 875.53 96.8881 848.39 100.548C789.39 108.518 735.25 127.688 682.9 146.218C619.32 168.728 553.57 192.008 480.87 193.848C457.25 194.438 432.84 193.388 406.25 190.608C336.3 183.318 273.87 167.528 223.72 154.848C189.68 146.238 160.28 138.808 135.94 135.708C75.7102 128.038 9.52016 143.578 2.57016 146.678L2.16016 145.768C9.15016 142.648 75.6301 127.018 136.06 134.718C160.46 137.828 189.89 145.268 223.96 153.888C274.09 166.568 336.47 182.338 406.35 189.628C432.9 192.398 457.27 193.448 480.84 192.858C553.38 191.028 616.13 168.808 682.56 145.288C734.97 126.738 789.16 107.548 848.25 99.5681C875.46 95.8881 903.59 95.2081 931.87 97.5181C1107.74 112.578 1201.76 197.658 1205.67 201.278L1204.99 202.008L1205 201.998Z" fill="#1C3B71"/>
<path d="M1207.47 222.918C1206.54 222.058 1106.4 136.228 932.47 123.248C904.29 121.148 876.25 122.248 849.11 126.538C797.86 134.628 748.32 150.258 700.42 165.368C632.59 186.768 562.52 208.878 488.18 208.878C485.48 208.878 482.78 208.848 480.06 208.788C457.31 208.288 433.25 205.818 406.51 201.228C351.69 191.818 301.03 178.678 256.34 167.078C210.45 155.168 170.83 144.888 137.93 141.408C76.3701 134.898 13.5901 150.938 4.78012 154.868L4.37012 153.958C13.2201 150.008 76.2801 133.878 138.03 140.418C171 143.908 210.66 154.198 256.58 166.118C301.25 177.708 351.89 190.848 406.66 200.248C433.35 204.828 457.36 207.298 480.07 207.798C557.27 209.508 629.88 186.578 700.1 164.428C748.04 149.308 797.6 133.668 848.93 125.558C876.15 121.258 904.27 120.148 932.52 122.258C1106.78 135.268 1207.19 221.328 1208.12 222.188L1207.44 222.918H1207.47Z" fill="#1C3B71"/>
<path d="M1209.95 243.838C1206.43 240.588 1178.28 219.418 1129.49 197.298C1086.61 177.848 1017.75 153.508 933.16 147.998C904.67 146.138 876.64 147.668 849.84 152.538C807.55 160.218 764.76 172.348 723.38 184.078C644.42 206.458 562.78 229.598 479.28 223.748C456.47 222.148 433.44 218.368 406.79 211.858C370.58 203.008 336.18 193.348 302.91 183.998C239.88 166.298 185.45 151.008 139.96 147.128C82.6399 142.238 21.6399 156.558 7.01986 163.078L6.60986 162.168C21.7899 155.398 81.7399 141.158 140.04 146.138C185.62 150.028 240.1 165.328 303.18 183.048C336.44 192.388 370.84 202.048 407.03 210.898C433.62 217.398 456.6 221.168 479.35 222.758C562.68 228.608 644.24 205.488 723.11 183.128C764.51 171.388 807.33 159.258 849.66 151.558C876.53 146.678 904.65 145.148 933.22 147.008C1017.96 152.528 1086.94 176.918 1129.9 196.398C1178.81 218.578 1207.08 239.848 1210.62 243.118L1209.94 243.848L1209.95 243.838Z" fill="#1C3B71"/>
<path d="M1212.42 264.768C1207.17 259.928 1176.05 239.128 1127.41 218.518C1083.98 200.118 1015.14 177.238 933.84 172.738C904.92 171.138 876.9 173.088 850.56 178.528C819 185.048 787.39 193.258 753.93 201.948C663.63 225.408 570.26 249.658 478.48 238.688C455.81 235.978 432.45 230.678 407.06 222.468C395.13 218.618 383.29 214.738 371.56 210.908C286.91 183.228 206.95 157.088 141.97 152.838C85.6598 149.148 27.7398 163.028 9.24984 171.278L8.83984 170.368C31.1698 160.408 89.8798 148.428 142.03 151.838C207.13 156.108 287.15 182.258 371.87 209.958C383.6 213.788 395.44 217.668 407.36 221.518C432.69 229.698 455.99 234.998 478.59 237.698C570.19 248.638 663.47 224.408 753.68 200.978C787.15 192.278 818.77 184.068 850.36 177.548C876.78 172.088 904.89 170.128 933.89 171.738C1015.34 176.248 1084.29 199.158 1127.79 217.598C1176.55 238.258 1207.8 259.158 1213.08 264.028L1212.4 264.758L1212.42 264.768Z" fill="#1C3B71"/>
<path d="M1214.89 285.688C1208.14 279.458 1173.9 258.948 1125.33 239.768C1081.39 222.418 1012.63 200.998 934.53 197.478C905.08 196.158 877.08 198.518 851.29 204.518C833.41 208.678 815.29 213.178 796.1 217.938C695.43 242.928 581.33 271.258 477.69 253.638C454.53 249.698 431.52 242.978 407.33 233.088C318.05 196.568 224.36 162.258 143.99 158.548C93.6101 156.228 38.1201 167.598 11.4901 179.478L11.0801 178.568C37.8101 166.638 93.5001 155.218 144.04 157.548C224.57 161.258 318.36 195.598 407.72 232.158C431.83 242.028 454.78 248.728 477.86 252.648C581.3 270.228 695.29 241.928 795.87 216.968C815.06 212.208 833.19 207.708 851.08 203.538C876.95 197.518 905.05 195.138 934.59 196.478C1012.83 200.008 1081.71 221.458 1125.72 238.838C1174.41 258.058 1208.79 278.678 1215.59 284.948L1214.91 285.678L1214.89 285.688Z" fill="#1C3B71"/>
<path d="M1217.37 306.608C1210.46 300.228 1175.76 280.318 1123.26 261.058C1078.87 244.768 1010.21 224.808 935.22 222.238C905.15 221.208 877.16 223.988 852.03 230.528C775.77 250.348 669.86 277.868 569.22 277.868C537.56 277.868 506.43 275.148 476.9 268.598C453.38 263.388 430.06 255.008 407.61 243.718C306.73 192.958 218.72 166.228 146.01 164.278C94.0001 162.888 42.1001 175.038 13.7201 187.698L13.3101 186.788C41.7901 174.078 93.8801 161.888 146.03 163.278C218.89 165.228 307.04 191.988 408.05 242.818C430.43 254.078 453.66 262.428 477.11 267.618C600.26 294.908 751.62 255.578 851.77 229.548C876.99 222.998 905.07 220.198 935.25 221.228C1010.37 223.808 1079.14 243.798 1123.6 260.108C1176.23 279.418 1211.08 299.438 1218.04 305.868L1217.36 306.598L1217.37 306.608Z" fill="#1C3B71"/>
<path d="M1219.84 327.528C1211.8 320.108 1174.89 300.628 1121.18 282.368C1076.39 267.138 1007.88 248.638 935.91 246.978C905.11 246.268 877.14 249.478 852.76 256.508C789.5 274.758 726.1 287.588 669.43 293.608C594.49 301.568 529.45 298.178 476.11 283.528C451.78 276.848 428.82 267.018 407.89 254.308C345.17 216.238 249.17 170.698 148.03 169.978C103.1 169.658 52.5098 179.588 15.9598 195.888L15.5498 194.978C52.2198 178.618 102.99 168.638 148.03 168.978C249.4 169.708 345.57 215.318 408.4 253.458C429.26 266.118 452.12 275.908 476.37 282.568C529.59 297.178 594.51 300.558 669.32 292.618C725.93 286.608 789.27 273.788 852.48 255.548C876.96 248.488 905.04 245.268 935.93 245.978C1008.03 247.638 1076.64 266.168 1121.5 281.418C1175.94 299.928 1212.18 319.098 1220.52 326.798L1219.84 327.528Z" fill="#1C3B71"/>
<path d="M1222.32 348.448C1201.58 329.308 1061.09 273.088 936.6 271.718C905.01 271.378 877.03 274.998 853.49 282.498C797.7 300.278 732.61 312.498 670.19 316.908C595.42 322.188 528.03 315.808 475.32 298.478C450.11 290.188 427.52 278.898 408.16 264.918C328.33 207.268 238.38 175.658 154.36 175.658C152.92 175.658 151.48 175.658 150.04 175.688C104.75 176.278 57.9298 186.358 18.1898 204.088L17.7798 203.178C57.6398 185.398 104.61 175.278 150.03 174.688C235.49 173.598 327.37 205.338 408.75 264.108C428.02 278.028 450.52 289.268 475.63 297.528C586.97 334.138 745.48 315.878 853.19 281.548C876.83 274.008 904.89 270.358 936.61 270.718C1061.34 272.098 1202.19 328.508 1223 347.718L1222.32 348.448Z" fill="#1C3B71"/>
<path d="M1224.79 369.378C1210.31 356.008 1145.87 330.438 1073.04 313.678C1020.36 301.558 921.88 284.768 854.22 308.498C791.63 330.448 704.06 342.648 625.66 340.338C581.1 339.018 540.47 333.328 504.91 323.418C465.25 312.368 432.79 296.258 408.44 275.528C355.3 230.308 293.3 199.868 229.13 187.508C195.03 180.938 160.47 179.508 126.41 183.248C90.4198 187.208 54.7598 196.978 20.4198 212.298L20.0098 211.388C54.4498 196.028 90.2098 186.218 126.3 182.258C160.46 178.508 195.12 179.938 229.31 186.528C293.65 198.918 355.81 229.438 409.08 274.768C433.32 295.398 465.65 311.438 505.17 322.448C540.66 332.338 581.21 338.018 625.69 339.328C703.96 341.638 791.41 329.458 853.89 307.548C921.79 283.738 1020.48 300.558 1073.27 312.698C1146.26 329.488 1210.9 355.178 1225.48 368.638L1224.8 369.368L1224.79 369.378Z" fill="#1C3B71"/>
<rect x="590" width="546" height="361" fill="url(#paint0_linear_2880_31)"/>
<path d="M913.287 128C913.908 128 914.451 128.228 914.901 128.684C915.348 129.135 915.578 129.687 915.58 130.321C915.58 130.946 915.348 131.493 914.901 131.946C914.448 132.402 913.908 132.631 913.287 132.631C912.655 132.631 912.11 132.4 911.666 131.943C911.224 131.493 911 130.946 911 130.324C911 129.69 911.224 129.138 911.666 128.687C912.107 128.231 912.655 128 913.287 128Z" fill="#1C3B71"/>
<path d="M1012.85 128.119C1012.25 128.119 1011.74 128.338 1011.31 128.769C1010.89 129.2 1010.68 129.721 1010.68 130.324C1010.68 130.913 1010.89 131.434 1011.31 131.865C1011.74 132.299 1012.25 132.515 1012.85 132.515C1013.44 132.515 1013.96 132.296 1014.38 131.868C1014.81 131.437 1015.03 130.918 1015.03 130.324C1015.03 129.718 1014.81 129.195 1014.38 128.766C1013.95 128.336 1013.44 128.119 1012.85 128.119Z" fill="#1C3B71"/>
<path d="M997.698 128.752H1000.61V153.287H997.698V128.752Z" fill="#1C3B71"/>
<path fill-rule="evenodd" clip-rule="evenodd" d="M987.107 134.901C988.738 134.901 990.22 135.278 991.514 136.028C992.812 136.777 993.841 137.844 994.571 139.191C995.298 140.534 995.667 142.086 995.667 143.804C995.667 144.244 995.525 144.621 995.245 144.92C994.96 145.221 994.59 145.382 994.171 145.382H981.123C981.272 146.3 981.59 147.133 982.066 147.869C982.628 148.736 983.374 149.418 984.278 149.899C985.186 150.384 986.215 150.629 987.34 150.629C987.896 150.629 988.481 150.53 989.076 150.342C989.672 150.153 990.239 149.874 990.765 149.516C991.039 149.339 991.347 149.249 991.685 149.249C991.931 149.249 992.169 149.302 992.387 149.404C992.619 149.513 992.804 149.663 992.941 149.851L993.687 150.93L993.382 151.209C992.58 151.936 991.635 152.519 990.572 152.941C989.51 153.364 988.422 153.578 987.342 153.578C985.6 153.578 984.015 153.175 982.631 152.375C981.244 151.572 980.145 150.443 979.362 149.006C978.584 147.581 978.19 145.95 978.19 144.165C978.19 142.41 978.576 140.81 979.339 139.413C980.103 138.01 981.176 136.892 982.53 136.098C983.881 135.304 985.421 134.901 987.107 134.901ZM981.646 142.534H992.742C992.597 141.7 992.306 140.951 991.875 140.3C991.358 139.52 990.681 138.906 989.867 138.481C989.048 138.053 988.12 137.833 987.107 137.833C986.042 137.833 985.058 138.072 984.185 138.546C983.313 139.016 982.591 139.683 982.046 140.526C981.643 141.142 981.361 141.83 981.196 142.573C981.336 142.548 981.487 142.534 981.646 142.534Z" fill="#1C3B71"/>
<path d="M1007.45 128.752H1004.54V153.287H1007.45V128.752Z" fill="#1C3B71"/>
<path d="M1011.39 135.174H1014.3V153.29H1011.39V135.174Z" fill="#1C3B71"/>
<path fill-rule="evenodd" clip-rule="evenodd" d="M1029.65 135.391C1030.23 135.304 1030.81 135.259 1031.4 135.259C1032.27 135.259 1032.92 135.338 1033.4 135.501L1033.71 135.611V136.374C1033.73 136.825 1033.61 137.242 1033.37 137.599C1033.17 137.892 1032.79 138.23 1032.06 138.171L1032.01 138.165C1031.97 138.157 1031.89 138.145 1031.76 138.126L1031.6 138.101C1031.41 138.072 1031.19 138.058 1030.96 138.056C1031.23 138.456 1031.45 138.886 1031.63 139.34C1031.91 140.075 1032.06 140.861 1032.06 141.675C1032.06 142.971 1031.73 144.179 1031.08 145.272C1030.43 146.356 1029.54 147.229 1028.43 147.866C1027.31 148.5 1026.07 148.821 1024.75 148.821C1023.89 148.821 1023.06 148.683 1022.27 148.412C1021.62 148.181 1021 147.871 1020.45 147.483C1020.3 147.626 1020.18 147.781 1020.1 147.942C1019.97 148.181 1019.91 148.415 1019.91 148.657C1019.91 149.074 1020.06 149.37 1020.4 149.584C1020.78 149.829 1021.32 149.939 1022.01 149.911L1026.23 149.739H1026.23C1028.29 149.739 1029.9 150.156 1031.03 150.978C1032.2 151.834 1032.79 153.068 1032.79 154.64C1032.79 156.366 1032.07 157.718 1030.65 158.653C1029.3 159.546 1027.36 160 1024.89 160C1023.51 160 1022.13 159.91 1020.76 159.732C1019.4 159.552 1018.15 159.324 1017.03 159.048L1016.63 158.949L1016.75 157.958C1016.79 157.49 1016.94 157.104 1017.21 156.823C1017.49 156.527 1017.87 156.369 1018.31 156.369C1018.4 156.369 1018.52 156.383 1018.68 156.411C1018.93 156.442 1019.42 156.518 1020.12 156.631C1021.02 156.778 1021.79 156.887 1022.41 156.961C1023.01 157.031 1023.64 157.068 1024.26 157.068H1025.05C1026.67 157.068 1027.91 156.834 1028.74 156.375C1029.5 155.958 1029.86 155.395 1029.86 154.64C1029.86 153.998 1029.6 153.547 1029.03 153.215C1028.4 152.843 1027.43 152.654 1026.15 152.654L1025.61 152.668L1021.94 152.806C1021 152.832 1020.15 152.691 1019.42 152.389C1018.66 152.077 1018.06 151.603 1017.63 150.987C1017.2 150.367 1016.98 149.621 1016.98 148.776C1016.98 148.088 1017.16 147.438 1017.52 146.838C1017.79 146.381 1018.16 145.965 1018.59 145.598C1018.28 145.125 1018.03 144.613 1017.84 144.063C1017.61 143.368 1017.49 142.633 1017.49 141.878C1017.49 140.602 1017.82 139.416 1018.46 138.351C1019.11 137.292 1020 136.444 1021.1 135.833C1022.2 135.222 1023.43 134.915 1024.75 134.915C1026.04 134.915 1027.23 135.194 1028.31 135.737C1028.7 135.585 1029.15 135.467 1029.65 135.391ZM1028.57 143.923C1028.95 143.306 1029.14 142.644 1029.14 141.897C1029.14 141.137 1028.95 140.467 1028.57 139.844C1028.19 139.224 1027.65 138.729 1026.99 138.365C1026.31 138.002 1025.56 137.816 1024.75 137.816C1023.96 137.816 1023.22 137.999 1022.55 138.365C1021.89 138.726 1021.36 139.224 1020.97 139.844C1020.59 140.467 1020.4 141.14 1020.4 141.897C1020.4 142.644 1020.59 143.306 1020.97 143.923C1021.36 144.545 1021.88 145.024 1022.55 145.387C1023.21 145.748 1023.96 145.928 1024.75 145.928C1025.57 145.928 1026.32 145.748 1026.99 145.387C1027.66 145.024 1028.18 144.545 1028.57 143.923Z" fill="#1C3B71"/>
<path fill-rule="evenodd" clip-rule="evenodd" d="M1047.81 136.028C1046.51 135.278 1045.03 134.901 1043.4 134.901C1041.71 134.901 1040.17 135.304 1038.82 136.098C1037.47 136.892 1036.4 138.01 1035.63 139.413C1034.87 140.81 1034.49 142.41 1034.49 144.165C1034.49 145.95 1034.88 147.581 1035.66 149.006C1036.44 150.443 1037.54 151.572 1038.93 152.375C1040.31 153.175 1041.9 153.578 1043.64 153.578C1044.72 153.578 1045.8 153.364 1046.87 152.941C1047.93 152.519 1048.87 151.936 1049.68 151.209L1049.98 150.93L1049.23 149.851C1049.1 149.663 1048.91 149.513 1048.68 149.401C1048.46 149.299 1048.22 149.246 1047.98 149.246C1047.64 149.246 1047.34 149.336 1047.06 149.513C1046.53 149.871 1045.96 150.15 1045.37 150.339C1044.77 150.527 1044.19 150.626 1043.63 150.626C1042.51 150.626 1041.48 150.381 1040.57 149.897C1039.67 149.415 1038.92 148.733 1038.36 147.866C1037.88 147.131 1037.56 146.297 1037.41 145.379H1050.46C1050.88 145.379 1051.25 145.218 1051.54 144.917C1051.82 144.618 1051.96 144.241 1051.96 143.801C1051.96 142.083 1051.59 140.528 1050.86 139.188C1050.14 137.844 1049.11 136.777 1047.81 136.028ZM1049.04 142.534H1037.94C1037.78 142.534 1037.63 142.548 1037.49 142.573C1037.66 141.83 1037.94 141.142 1038.34 140.526C1038.89 139.683 1039.61 139.016 1040.48 138.546C1041.35 138.072 1042.34 137.833 1043.4 137.833C1044.42 137.833 1045.35 138.053 1046.16 138.481C1046.98 138.906 1047.65 139.52 1048.17 140.3C1048.6 140.951 1048.89 141.7 1049.04 142.534Z" fill="#1C3B71"/>
<path d="M1057.05 136.808C1058.39 135.619 1060.13 135.019 1062.28 135.019C1064.51 135.019 1066.41 135.808 1067.92 137.365C1069.43 138.917 1070.2 140.833 1070.2 143.049V153.327H1067.21V143.049C1067.21 141.647 1066.73 140.458 1065.75 139.419C1064.78 138.393 1063.64 137.892 1062.27 137.892C1060.88 137.892 1059.69 138.399 1058.62 139.444C1057.57 140.483 1057.05 141.661 1057.05 143.049V153.327H1054.06V135.411H1057.05V136.808Z" fill="#1C3B71"/>
<path d="M973.513 149.277C972.735 148.502 972.358 147.542 972.358 146.342V140.266H975.836V137.388H972.358V128.901H969.366V137.388H967.747V140.261H969.366V146.339C969.366 148.359 970.056 150.043 971.424 151.35C972.777 152.645 974.433 153.302 976.343 153.302H977.274V150.432H976.343C975.218 150.432 974.293 150.054 973.513 149.277Z" fill="#1C3B71"/>
<path d="M1077.91 149.277C1078.69 150.054 1079.61 150.432 1080.73 150.432H1081.67V153.302H1080.74C1078.82 153.302 1077.17 152.645 1075.82 151.35C1074.45 150.043 1073.76 148.359 1073.76 146.339V140.261H1072.14V137.388H1073.76V128.901H1076.75V137.388H1080.23V140.264H1076.75V146.342C1076.75 147.542 1077.13 148.502 1077.91 149.277Z" fill="#1C3B71"/>
<path d="M914.854 135.055H911.711V153.405H914.854V135.055Z" fill="#1C3B71"/>
<path d="M932.526 137.366C931.008 135.808 929.106 135.017 926.877 135.017C924.735 135.017 922.99 135.617 921.657 136.805V135.408H918.665V153.325H921.657V143.05C921.657 141.664 922.171 140.484 923.231 139.444C924.299 138.399 925.49 137.892 926.877 137.892C928.25 137.892 929.389 138.394 930.356 139.419C931.338 140.458 931.813 141.647 931.813 143.05V153.327H934.805V143.05C934.808 140.83 934.042 138.92 932.526 137.366Z" fill="#1C3B71"/>
<path d="M941.029 130.873C942.383 129.578 944.035 128.921 945.948 128.921H946.879V131.797H945.948C944.824 131.797 943.898 132.175 943.118 132.952C942.341 133.729 941.963 134.687 941.963 135.887V138.039H945.442V140.914H941.963V153.327H938.971V140.914H937.352V138.039H938.971V135.884C938.971 133.865 939.665 132.18 941.029 130.873Z" fill="#1C3B71"/>
<path d="M955.865 141.139C956.411 141.139 956.917 141.277 957.389 141.556C957.865 141.832 958.242 142.212 958.525 142.697C958.81 143.181 958.95 143.699 958.95 144.257C958.95 144.818 958.81 145.336 958.525 145.817C958.242 146.299 957.862 146.679 957.389 146.958C956.917 147.234 956.408 147.375 955.865 147.375C955.298 147.375 954.777 147.237 954.305 146.958C953.832 146.679 953.458 146.299 953.181 145.817C952.904 145.333 952.764 144.815 952.764 144.257C952.764 143.699 952.904 143.178 953.181 142.697C953.455 142.215 953.832 141.835 954.305 141.556C954.777 141.28 955.298 141.139 955.865 141.139Z" fill="#1C3B71"/>
<path fill-rule="evenodd" clip-rule="evenodd" d="M962.475 137.658C960.663 135.832 958.443 134.906 955.879 134.906C953.312 134.906 951.086 135.83 949.263 137.655C947.439 139.48 946.514 141.68 946.514 144.184C946.514 146.682 947.423 148.899 949.215 150.769C951.016 152.65 953.205 153.605 955.719 153.605H956.038C958.577 153.605 960.767 152.656 962.545 150.786C964.312 148.927 965.207 146.713 965.207 144.203C965.204 141.685 964.287 139.483 962.475 137.658ZM962.21 144.274C962.21 146.043 961.603 147.53 960.353 148.823C959.108 150.107 957.657 150.732 955.909 150.732C954.159 150.732 952.685 150.104 951.405 148.814C950.127 147.524 949.503 146.045 949.503 144.291C949.503 142.533 950.127 141.04 951.41 139.728C952.691 138.418 954.156 137.779 955.89 137.779C957.624 137.779 959.078 138.41 960.333 139.705C961.597 141.009 962.21 142.502 962.21 144.274Z" fill="#1C3B71"/>
<defs>
<linearGradient id="paint0_linear_2880_31" x1="948" y1="179.983" x2="605" y2="179.983" gradientUnits="userSpaceOnUse">
<stop stop-color="white"/>
<stop offset="1" stop-color="white" stop-opacity="0"/>
</linearGradient>
</defs>
</svg>
