<svg width="192" height="36" viewBox="0 0 192 36" fill="none" xmlns="http://www.w3.org/2000/svg">
<path d="M2.57333 0C3.27173 0 3.882 0.256664 4.3885 0.769991C4.89184 1.27698 5.14979 1.89804 5.15295 2.611C5.15295 3.31445 4.89184 3.92917 4.3885 4.43933C3.87887 4.95266 3.27173 5.20932 2.57333 5.20932C1.86235 5.20932 1.24891 4.94949 0.748734 4.43616C0.251687 3.92917 0 3.31445 0 2.61417C0 1.90121 0.251687 1.28015 0.748734 0.77316C1.24578 0.259833 1.86235 0 2.57333 0Z" fill="#1C3B71"/>
<path d="M114.586 0.133681C113.91 0.133681 113.328 0.38084 112.853 0.865647C112.381 1.35046 112.142 1.93667 112.142 2.61476C112.142 3.27702 112.381 3.86323 112.853 4.34804C113.328 4.83601 113.91 5.08 114.586 5.08C115.247 5.08 115.829 4.83285 116.307 4.3512C116.788 3.86639 117.03 3.28336 117.03 2.61476C117.03 1.9335 116.785 1.34412 116.307 0.862479C115.822 0.377669 115.247 0.133681 114.586 0.133681Z" fill="#1C3B71"/>
<path d="M97.5348 0.846115H100.807V28.4486H97.5348V0.846115Z" fill="#1C3B71"/>
<path fill-rule="evenodd" clip-rule="evenodd" d="M85.6207 7.76339C87.4548 7.76339 89.1221 8.18799 90.5786 9.03086C92.0384 9.87373 93.196 11.0747 94.0171 12.5893C94.835 14.1008 95.2503 15.8467 95.2503 17.7796C95.2503 18.2739 95.0899 18.6985 94.7752 19.0344C94.4544 19.3735 94.0391 19.5541 93.5672 19.5541H78.8886C79.0553 20.5871 79.4139 21.525 79.9487 22.352C80.581 23.328 81.421 24.0948 82.4371 24.6367C83.4595 25.1817 84.6172 25.4573 85.8819 25.4573C86.5079 25.4573 87.1654 25.3464 87.8354 25.1341C88.5055 24.9218 89.1441 24.6081 89.7355 24.2057C90.0439 24.0061 90.3899 23.9047 90.7706 23.9047C91.0474 23.9047 91.3148 23.9649 91.5602 24.079C91.8213 24.2025 92.0289 24.3705 92.183 24.5828L93.023 25.7964L92.6801 26.1101C91.7772 26.9276 90.7139 27.5835 89.5185 28.0588C88.3231 28.5341 87.0993 28.775 85.885 28.775C83.9251 28.775 82.1414 28.3218 80.5842 27.4219C79.0238 26.5189 77.7875 25.2482 76.9067 23.6322C76.0321 22.0288 75.5885 20.1942 75.5885 18.1852C75.5885 16.2111 76.0227 14.4113 76.8815 12.8396C77.7403 11.2616 78.9483 10.0036 80.471 9.11008C81.9904 8.21651 83.7238 7.76339 85.6207 7.76339ZM79.4768 16.3505H91.9597C91.7961 15.4126 91.4689 14.5697 90.9845 13.8378C90.4025 12.96 89.6412 12.2693 88.7257 11.7908C87.804 11.3091 86.7596 11.062 85.6207 11.062C84.4222 11.062 83.3148 11.3313 82.3333 11.8637C81.3518 12.3928 80.5401 13.1438 79.9267 14.0913C79.4737 14.7852 79.156 15.5584 78.9704 16.3949C79.1277 16.3664 79.2975 16.3505 79.4768 16.3505Z" fill="#1C3B71"/>
<path d="M108.508 0.846115H105.236V28.4486H108.508V0.846115Z" fill="#1C3B71"/>
<path d="M112.94 8.07051H116.212V28.4515H112.94V8.07051Z" fill="#1C3B71"/>
<path fill-rule="evenodd" clip-rule="evenodd" d="M133.482 8.31517C134.131 8.21694 134.791 8.16625 135.445 8.16625C136.424 8.16625 137.163 8.25497 137.695 8.43875L138.05 8.56233V9.42105C138.066 9.92803 137.937 10.397 137.667 10.7994C137.446 11.129 137.012 11.5092 136.191 11.4427L136.134 11.4363C136.091 11.4272 135.999 11.4131 135.859 11.3917L135.675 11.3635C135.458 11.3318 135.216 11.3159 134.952 11.3127C135.257 11.7627 135.508 12.2475 135.707 12.7577C136.028 13.5847 136.191 14.4688 136.191 15.3845C136.191 16.8421 135.823 18.2015 135.09 19.4309C134.363 20.6509 133.357 21.6332 132.105 22.3493C130.849 23.0622 129.459 23.4235 127.968 23.4235C127.002 23.4235 126.064 23.2682 125.184 22.964C124.444 22.7042 123.752 22.3556 123.126 21.9183C122.963 22.08 122.831 22.2542 122.733 22.4348C122.591 22.7042 122.522 22.9672 122.522 23.2397C122.522 23.7087 122.698 24.0414 123.07 24.2822C123.504 24.5579 124.114 24.6814 124.885 24.6498L129.629 24.4565H129.632C131.954 24.4565 133.766 24.9254 135.03 25.8507C136.348 26.814 137.015 28.2019 137.015 29.97C137.015 31.9124 136.204 33.4334 134.609 34.4854C133.083 35.4898 130.9 36 128.122 36C126.574 36 125.017 35.8986 123.482 35.699C121.95 35.4962 120.54 35.2395 119.288 34.929L118.838 34.8181L118.967 33.7027C119.015 33.1767 119.188 32.7426 119.486 32.4257C119.798 32.093 120.229 31.9156 120.723 31.9156C120.823 31.9156 120.956 31.9314 121.135 31.9631C121.421 31.9979 121.978 32.0835 122.764 32.2103C123.774 32.375 124.639 32.4986 125.338 32.581C126.017 32.6602 126.719 32.7014 127.414 32.7014H128.308C130.126 32.7014 131.523 32.4384 132.46 31.9219C133.309 31.4529 133.722 30.8192 133.722 29.97C133.722 29.2475 133.423 28.7405 132.784 28.3666C132.07 27.9484 130.981 27.7361 129.547 27.7361L128.934 27.7519L124.812 27.9072C123.749 27.9357 122.793 27.7773 121.969 27.4382C121.119 27.0865 120.443 26.5541 119.961 25.8602C119.474 25.1631 119.228 24.3234 119.228 23.3728C119.228 22.5996 119.433 21.8677 119.836 21.1927C120.144 20.6794 120.55 20.2104 121.044 19.7985C120.688 19.2662 120.405 18.6895 120.197 18.0716C119.936 17.2889 119.801 16.4619 119.801 15.6127C119.801 14.1772 120.169 12.8432 120.896 11.6455C121.623 10.454 122.62 9.50026 123.859 8.81265C125.099 8.12505 126.483 7.77966 127.971 7.77966C129.418 7.77966 130.764 8.09336 131.969 8.70492C132.416 8.53381 132.923 8.40073 133.482 8.31517ZM132.265 17.9131C132.696 17.2192 132.907 16.4745 132.907 15.6348C132.907 14.7793 132.696 14.0251 132.265 13.3249C131.834 12.6278 131.236 12.0701 130.484 11.6613C129.726 11.2525 128.883 11.0434 127.974 11.0434C127.081 11.0434 126.247 11.2494 125.495 11.6613C124.75 12.0669 124.152 12.6278 123.721 13.3249C123.287 14.0251 123.076 14.7825 123.076 15.6348C123.076 16.4745 123.29 17.2192 123.721 17.9131C124.155 18.6134 124.737 19.1521 125.492 19.5608C126.241 19.9664 127.077 20.1692 127.974 20.1692C128.886 20.1692 129.733 19.9664 130.488 19.5608C131.246 19.1521 131.828 18.6134 132.265 17.9131Z" fill="#1C3B71"/>
<path fill-rule="evenodd" clip-rule="evenodd" d="M153.909 9.03086C152.453 8.18799 150.782 7.76339 148.951 7.76339C147.054 7.76339 145.321 8.21651 143.801 9.11008C142.279 10.0036 141.071 11.2616 140.212 12.8396C139.356 14.4113 138.922 16.2111 138.922 18.1852C138.922 20.1942 139.366 22.0288 140.24 23.6322C141.121 25.2482 142.357 26.5189 143.918 27.4219C145.475 28.3218 147.259 28.775 149.216 28.775C150.43 28.775 151.654 28.5341 152.849 28.0588C154.044 27.5835 155.108 26.9276 156.011 26.1101L156.354 25.7964L155.51 24.5828C155.359 24.3705 155.152 24.2025 154.891 24.0758C154.642 23.9617 154.378 23.9015 154.101 23.9015C153.72 23.9015 153.378 24.0029 153.063 24.2025C152.475 24.605 151.833 24.9187 151.163 25.131C150.493 25.3433 149.838 25.4542 149.209 25.4542C147.945 25.4542 146.787 25.1785 145.764 24.6335C144.748 24.0916 143.908 23.3248 143.276 22.3489C142.738 21.5218 142.383 20.5839 142.216 19.5509H156.895C157.363 19.5509 157.782 19.3703 158.103 19.0312C158.417 18.6954 158.578 18.2708 158.578 17.7764C158.578 15.8435 158.162 14.0944 157.344 12.5861C156.527 11.0747 155.372 9.87373 153.909 9.03086ZM155.293 16.3505H142.81C142.631 16.3505 142.461 16.3664 142.304 16.3949C142.49 15.5584 142.807 14.7852 143.26 14.0913C143.874 13.1438 144.685 12.3928 145.667 11.8637C146.648 11.3313 147.756 11.062 148.954 11.062C150.093 11.062 151.138 11.3091 152.059 11.7908C152.975 12.2693 153.736 12.96 154.318 13.8378C154.803 14.5697 155.13 15.4126 155.293 16.3505Z" fill="#1C3B71"/>
<path d="M164.309 9.90865C165.813 8.57147 167.776 7.89654 170.186 7.89654C172.696 7.89654 174.832 8.78377 176.534 10.5361C178.239 12.282 179.101 14.4367 179.101 16.9305V28.493H175.735V16.9305C175.735 15.3525 175.197 14.0153 174.093 12.846C173.005 11.6926 171.724 11.1286 170.18 11.1286C168.619 11.1286 167.276 11.699 166.077 12.8745C164.888 14.0438 164.309 15.3683 164.309 16.9305V28.493H160.943V8.33698H164.309V9.90865Z" fill="#1C3B71"/>
<path d="M70.3263 23.9365C69.4517 23.0651 69.027 21.9846 69.027 20.6347V13.7999H72.9405V10.5615H69.027V1.01422H65.6609V10.5615H63.8394V13.7935H65.6609V20.6316C65.6609 22.9035 66.4379 24.7984 67.9763 26.2687C69.4989 27.7263 71.3612 28.4646 73.5099 28.4646H74.5575V25.2357H73.5099C72.2452 25.2357 71.2039 24.8111 70.3263 23.9365Z" fill="#1C3B71"/>
<path d="M187.769 23.9365C188.646 24.8111 189.688 25.2357 190.949 25.2357H192V28.4646H190.952C188.801 28.4646 186.938 27.7263 185.419 26.2687C183.88 24.7984 183.103 22.9035 183.103 20.6316V13.7935H181.282V10.5615H183.103V1.01422H186.47V10.5615H190.383V13.7967H186.47V20.6347C186.47 21.9846 186.894 23.0651 187.769 23.9365Z" fill="#1C3B71"/>
<path d="M4.33577 7.93736H0.799804V28.5814H4.33577V7.93736Z" fill="#1C3B71"/>
<path d="M24.2172 10.5363C22.509 8.784 20.3698 7.8936 17.8626 7.8936C15.4528 7.8936 13.4898 8.56853 11.9892 9.90571V8.33405H8.62313V28.4901H11.9892V16.9307C11.9892 15.3717 12.568 14.044 13.7604 12.8748C14.9621 11.6992 16.3022 11.1288 17.8626 11.1288C19.4072 11.1288 20.6876 11.6929 21.776 12.8463C22.8802 14.0155 23.415 15.3527 23.415 16.9307V28.4932H26.7811V16.9307C26.7843 14.4338 25.9223 12.2854 24.2172 10.5363Z" fill="#1C3B71"/>
<path d="M33.7831 3.23226C35.3057 1.77467 37.1649 1.03636 39.3167 1.03636H40.3643V4.27159H39.3167C38.0521 4.27159 37.0108 4.6962 36.1331 5.57075C35.2585 6.44531 34.8338 7.52267 34.8338 8.87253V11.2934H38.7473V14.5286H34.8338V28.493H31.4677V14.5286H29.6463V11.2934H31.4677V8.86936C31.4677 6.59741 32.2479 4.70253 33.7831 3.23226Z" fill="#1C3B71"/>
<path d="M50.4729 14.7813C51.0864 14.7813 51.6558 14.9365 52.1874 15.2502C52.7222 15.5608 53.1469 15.9885 53.4647 16.5335C53.7856 17.0786 53.9429 17.6616 53.9429 18.289C53.9429 18.9196 53.7856 19.5026 53.4647 20.0444C53.1469 20.5863 52.7191 21.0141 52.1874 21.3278C51.6558 21.6383 51.0833 21.7967 50.4729 21.7967C49.8343 21.7967 49.2492 21.6415 48.7175 21.3278C48.1859 21.0141 47.7643 20.5863 47.4529 20.0444C47.1415 19.4994 46.9842 18.9164 46.9842 18.289C46.9842 17.6616 47.1415 17.0754 47.4529 16.5335C47.7612 15.9917 48.1859 15.5639 48.7175 15.2502C49.2492 14.9397 49.8343 14.7813 50.4729 14.7813Z" fill="#1C3B71"/>
<path fill-rule="evenodd" clip-rule="evenodd" d="M57.9093 10.8645C55.8708 8.81122 53.373 7.76872 50.4882 7.76872C47.6003 7.76872 45.0962 8.80805 43.0451 10.8614C40.9939 12.9147 39.9526 15.3894 39.9526 18.2064C39.9526 21.017 40.9751 23.5108 42.9916 25.6148C45.0175 27.7315 47.4807 28.8056 50.3089 28.8056H50.6675C53.524 28.8056 55.9872 27.7378 57.988 25.6338C59.9762 23.5425 60.9829 21.0519 60.9829 18.2286C60.9797 15.3958 59.9478 12.9178 57.9093 10.8645ZM57.6105 18.3078C57.6105 20.2977 56.9278 21.9708 55.5216 23.4252C54.1217 24.8701 52.489 25.5736 50.5228 25.5736C48.5535 25.5736 46.8956 24.867 45.4548 23.4157C44.0171 21.9644 43.3156 20.3009 43.3156 18.3268C43.3156 16.3495 44.0171 14.6701 45.4611 13.1935C46.9019 11.7201 48.5503 11.0008 50.5008 11.0008C52.4512 11.0008 54.0871 11.7106 55.4996 13.1682C56.9215 14.6353 57.6105 16.3147 57.6105 18.3078Z" fill="#1C3B71"/>
</svg>
