<svg width="5760" height="1080" viewBox="0 0 5760 1080" fill="none" xmlns="http://www.w3.org/2000/svg">
<path d="M77.1998 0C98.1518 0 116.46 7.69989 131.655 23.0996C146.755 38.3093 154.493 56.941 154.588 78.3297C154.588 99.4332 146.755 117.875 131.655 133.179C116.366 148.579 98.1518 156.279 77.1998 156.279C55.8704 156.279 37.4673 148.484 22.462 133.084C7.5506 117.875 0 99.4332 0 78.4248C0 57.0361 7.5506 38.4044 22.462 23.1947C37.3734 7.79496 55.8704 0 77.1998 0Z" fill="#1C3B71"/>
<path d="M3437.56 4.01367C3417.28 4.01367 3399.82 11.4284 3385.57 25.9726C3371.41 40.5169 3364.24 58.1031 3364.24 78.4458C3364.24 98.3135 3371.41 115.9 3385.57 130.444C3399.82 145.083 3417.28 152.403 3437.56 152.403C3457.39 152.403 3474.85 144.988 3489.19 130.539C3503.62 115.995 3510.88 98.5037 3510.88 78.4458C3510.88 58.008 3503.53 40.3267 3489.19 25.8775C3474.64 11.3333 3457.39 4.01367 3437.56 4.01367Z" fill="#1C3B71"/>
<path d="M2926.05 25.3857H3024.22V853.457H2926.05V25.3857Z" fill="#1C3B71"/>
<path fill-rule="evenodd" clip-rule="evenodd" d="M2568.63 232.895C2623.65 232.895 2673.67 245.632 2717.37 270.918C2761.16 296.205 2795.89 332.233 2820.52 377.671C2845.06 423.016 2857.52 475.393 2857.52 533.38C2857.52 548.209 2852.7 560.947 2843.26 571.024C2833.64 581.197 2821.18 586.615 2807.02 586.615H2366.67C2371.67 617.604 2382.42 645.741 2398.47 670.551C2417.44 699.831 2442.64 722.835 2473.12 739.092C2503.79 755.442 2538.52 763.71 2576.46 763.71C2595.24 763.71 2614.97 760.383 2635.07 754.014C2655.17 747.645 2674.33 738.234 2692.07 726.162C2701.32 720.174 2711.7 717.132 2723.13 717.132C2731.43 717.132 2739.45 718.938 2746.81 722.361C2754.65 726.066 2760.87 731.106 2765.5 737.475L2790.7 773.883L2780.41 783.294C2753.32 807.819 2721.42 827.496 2685.56 841.755C2649.7 856.014 2612.99 863.241 2576.56 863.241C2517.76 863.241 2464.25 849.645 2417.53 822.648C2370.72 795.558 2333.63 757.437 2307.21 708.957C2280.97 660.855 2267.66 605.818 2267.66 545.548C2267.66 486.325 2280.69 432.331 2306.45 385.18C2332.22 337.84 2368.46 300.101 2414.14 273.295C2459.72 246.488 2511.72 232.895 2568.63 232.895ZM2384.31 490.507H2758.8C2753.89 462.37 2744.07 437.083 2729.54 415.126C2712.08 388.792 2689.24 368.071 2661.78 353.716C2634.13 339.265 2602.8 331.852 2568.63 331.852C2532.67 331.852 2499.45 339.931 2470.01 355.903C2440.56 371.776 2416.21 394.306 2397.81 422.731C2384.22 443.548 2374.69 466.744 2369.12 491.839C2373.84 490.984 2378.93 490.507 2384.31 490.507Z" fill="#1C3B71"/>
<path d="M3255.25 25.3857H3157.09V853.457H3255.25V25.3857Z" fill="#1C3B71"/>
<path d="M3388.21 242.108H3486.37V853.536H3388.21V242.108Z" fill="#1C3B71"/>
<path fill-rule="evenodd" clip-rule="evenodd" d="M4004.45 249.458C4023.92 246.511 4043.72 244.99 4063.34 244.99C4092.71 244.99 4114.88 247.652 4130.84 253.165L4141.49 256.873V282.634C4141.97 297.843 4138.1 311.913 4130 323.984C4123.37 333.872 4110.35 345.278 4085.72 343.283L4084.01 343.091C4082.72 342.818 4079.96 342.395 4075.76 341.753L4070.24 340.907C4063.73 339.956 4056.47 339.479 4048.55 339.383C4057.7 352.883 4065.23 367.427 4071.2 382.733C4080.83 407.543 4085.72 434.066 4085.72 461.537C4085.72 505.265 4074.68 546.047 4052.69 582.929C4030.88 619.528 4000.7 648.997 3963.14 670.48C3925.46 691.867 3883.76 702.706 3839.03 702.706C3810.05 702.706 3781.91 698.047 3755.51 688.921C3733.31 681.127 3712.55 670.669 3693.77 657.55C3688.88 662.401 3684.92 667.627 3681.98 673.045C3677.72 681.127 3675.65 689.017 3675.65 697.192C3675.65 711.262 3680.93 721.243 3692.09 728.467C3705.11 736.738 3723.41 740.443 3746.54 739.495L3888.86 733.696H3888.95C3958.61 733.696 4012.97 747.763 4050.89 775.522C4090.43 804.421 4110.44 846.058 4110.44 899.1C4110.44 957.372 4086.11 1003 4038.26 1034.56C3992.48 1064.69 3926.99 1080 3843.65 1080C3797.21 1080 3750.5 1076.96 3704.45 1070.97C3658.49 1064.89 3616.19 1057.18 3578.63 1047.87L3565.13 1044.54L3569 1011.08C3570.44 995.301 3575.63 982.278 3584.57 972.771C3593.93 962.79 3606.86 957.468 3621.68 957.468C3624.68 957.468 3628.67 957.942 3634.04 958.893C3642.62 959.937 3659.33 962.505 3682.91 966.309C3713.21 971.25 3739.16 974.958 3760.13 977.43C3780.5 979.806 3801.56 981.042 3822.41 981.042H3849.23C3903.77 981.042 3945.68 973.152 3973.79 957.657C3999.26 943.587 4011.65 924.576 4011.65 899.1C4011.65 877.425 4002.68 862.216 3983.51 850.999C3962.09 838.453 3929.42 832.084 3886.4 832.084L3868.01 832.558L3744.35 837.217C3712.46 838.072 3683.78 833.32 3659.06 823.147C3633.56 812.596 3613.28 796.624 3598.82 775.807C3584.21 754.894 3576.83 729.703 3576.83 701.185C3576.83 677.989 3582.98 656.032 3595.07 635.782C3604.31 620.383 3616.49 606.313 3631.31 593.957C3620.63 577.988 3612.14 560.687 3605.9 542.15C3598.07 518.669 3594.02 493.859 3594.02 468.383C3594.02 425.318 3605.06 385.298 3626.87 349.367C3648.68 313.622 3678.59 285.01 3715.76 264.382C3752.96 243.754 3794.48 233.393 3839.12 233.393C3882.53 233.393 3922.91 242.804 3959.06 261.15C3972.47 256.017 3987.68 252.025 4004.45 249.458ZM3967.94 537.395C3980.87 516.578 3987.2 494.237 3987.2 469.046C3987.2 443.381 3980.87 420.755 3967.94 399.749C3955.01 378.836 3937.07 362.105 3914.51 349.841C3891.77 337.577 3866.48 331.304 3839.21 331.304C3812.42 331.304 3787.4 337.484 3764.84 349.841C3742.49 362.009 3724.55 378.836 3711.62 399.749C3698.6 420.755 3692.27 443.477 3692.27 469.046C3692.27 494.237 3698.69 516.578 3711.62 537.395C3724.64 558.404 3742.1 574.565 3764.75 586.826C3787.22 598.994 3812.3 605.077 3839.21 605.077C3866.57 605.077 3891.98 598.994 3914.63 586.826C3937.37 574.565 3954.83 558.404 3967.94 537.395Z" fill="#1C3B71"/>
<path fill-rule="evenodd" clip-rule="evenodd" d="M4617.26 270.918C4573.58 245.632 4523.45 232.895 4468.52 232.895C4411.61 232.895 4359.62 246.488 4314.02 273.295C4268.36 300.101 4232.12 337.84 4206.35 385.18C4180.67 432.331 4167.65 486.325 4167.65 545.548C4167.65 605.818 4180.97 660.855 4207.19 708.957C4233.62 757.437 4270.7 795.558 4317.53 822.648C4364.24 849.645 4417.76 863.241 4476.47 863.241C4512.89 863.241 4549.61 856.014 4585.46 841.755C4621.31 827.496 4653.23 807.819 4680.32 783.294L4690.61 773.883L4665.29 737.475C4660.76 731.106 4654.55 726.066 4646.72 722.265C4639.25 718.842 4631.33 717.036 4623.02 717.036C4611.59 717.036 4601.33 720.078 4591.88 726.066C4574.24 738.141 4554.98 747.552 4534.88 753.921C4514.78 760.29 4495.13 763.617 4476.26 763.617C4438.34 763.617 4403.6 755.346 4372.91 738.996C4342.43 722.739 4317.23 699.735 4298.27 670.458C4282.13 645.645 4271.48 617.508 4266.47 586.519H4706.84C4720.88 586.519 4733.45 581.101 4743.08 570.928C4752.5 560.854 4757.33 548.116 4757.33 533.284C4757.33 475.297 4744.85 422.824 4720.31 377.575C4695.8 332.233 4661.15 296.205 4617.26 270.918ZM4658.78 490.507H4284.29C4278.92 490.507 4273.82 490.984 4269.11 491.839C4274.69 466.744 4284.2 443.548 4297.79 422.731C4316.21 394.306 4340.54 371.776 4370 355.903C4399.43 339.931 4432.67 331.852 4468.61 331.852C4502.78 331.852 4534.13 339.265 4561.76 353.716C4589.24 368.071 4612.07 388.792 4629.53 415.126C4644.08 437.083 4653.89 462.37 4658.78 490.507Z" fill="#1C3B71"/>
<path d="M4929.28 297.257C4974.4 257.141 5033.29 236.894 5105.58 236.894C5180.88 236.894 5244.96 263.51 5296.02 316.08C5347.17 368.457 5373.03 433.098 5373.03 507.911V854.785H5272.05V507.911C5272.05 460.572 5255.91 420.456 5222.79 385.377C5190.15 350.775 5151.72 333.855 5105.4 333.855C5058.57 333.855 5018.28 350.967 4982.31 386.232C4946.64 421.311 4929.28 461.046 4929.28 507.911V854.785H4828.29V250.107H4929.28V297.257Z" fill="#1C3B71"/>
<path d="M2109.8 718.091C2083.56 691.949 2070.82 659.534 2070.82 619.037V413.994H2188.23V316.842H2070.82V30.4248H1969.84V316.842H1915.19V413.802H1969.84V618.944C1969.84 687.101 1993.15 743.948 2039.3 788.057C2084.98 831.784 2140.85 853.933 2205.31 853.933H2236.74V757.067H2205.31C2167.37 757.067 2136.13 744.329 2109.8 718.091Z" fill="#1C3B71"/>
<path d="M5633.07 718.091C5659.38 744.329 5690.64 757.067 5728.47 757.067H5760V853.933H5728.56C5664.03 853.933 5608.14 831.784 5562.57 788.057C5516.4 743.948 5493.09 687.101 5493.09 618.944V413.802H5438.46V316.842H5493.09V30.4248H5594.1V316.842H5711.49V413.898H5594.1V619.037C5594.1 659.534 5606.82 691.949 5633.07 718.091Z" fill="#1C3B71"/>
<path d="M130.073 238.124H23.9941V857.443H130.073V238.124Z" fill="#1C3B71"/>
<path d="M726.513 316.086C675.267 263.518 611.091 236.806 535.875 236.806C463.581 236.806 404.691 257.053 359.673 297.169V250.019H258.691V854.699H359.673V507.918C359.673 461.148 377.037 421.317 412.809 386.241C448.86 350.973 489.063 333.861 535.875 333.861C582.213 333.861 620.625 350.784 653.277 385.386C686.403 420.462 702.447 460.578 702.447 507.918V854.791H803.43V507.918C803.526 433.011 777.666 368.559 726.513 316.086Z" fill="#1C3B71"/>
<path d="M1013.5 96.9608C1059.18 53.2332 1114.95 31.084 1179.51 31.084H1210.93V128.141H1179.51C1141.57 128.141 1110.33 140.879 1084 167.115C1057.76 193.352 1045.02 225.673 1045.02 266.168V338.794H1162.42V435.85H1045.02V854.78H944.035V435.85H889.394V338.794H944.035V266.073C944.035 197.915 967.441 141.069 1013.5 96.9608Z" fill="#1C3B71"/>
<path d="M1514.19 443.436C1532.6 443.436 1549.68 448.092 1565.63 457.503C1581.67 466.82 1594.41 479.651 1603.94 496.001C1613.57 512.354 1618.29 529.844 1618.29 548.666C1618.29 567.584 1613.57 585.074 1603.94 601.328C1594.41 617.585 1581.58 630.419 1565.63 639.83C1549.68 649.145 1532.5 653.897 1514.19 653.897C1495.03 653.897 1477.48 649.241 1461.53 639.83C1445.58 630.419 1432.93 617.585 1423.59 601.328C1414.25 584.978 1409.53 567.488 1409.53 548.666C1409.53 529.844 1414.25 512.258 1423.59 496.001C1432.84 479.747 1445.58 466.913 1461.53 457.503C1477.48 448.188 1495.03 443.436 1514.19 443.436Z" fill="#1C3B71"/>
<path fill-rule="evenodd" clip-rule="evenodd" d="M1737.26 325.929C1676.11 264.331 1601.17 233.056 1514.63 233.056C1427.99 233.056 1352.87 264.235 1291.34 325.836C1229.8 387.434 1198.56 461.675 1198.56 546.185C1198.56 630.503 1229.24 705.316 1289.73 768.436C1350.51 831.937 1424.41 864.16 1509.25 864.16H1520.01C1605.7 864.16 1679.6 832.126 1739.62 769.006C1799.27 706.267 1829.47 631.55 1829.47 546.851C1829.37 461.867 1798.42 387.528 1737.26 325.929ZM1728.3 549.227C1728.3 608.924 1707.82 659.117 1665.63 702.748C1623.64 746.095 1574.65 767.2 1515.67 767.2C1456.59 767.2 1406.85 746.002 1363.63 702.463C1320.5 658.925 1299.45 609.02 1299.45 549.797C1299.45 490.478 1320.5 440.096 1363.82 395.798C1407.04 351.597 1456.49 330.018 1515.01 330.018C1573.52 330.018 1622.6 351.312 1664.97 395.039C1707.63 439.052 1728.3 489.434 1728.3 549.227Z" fill="#1C3B71"/>
</svg>
