<svg xmlns="http://www.w3.org/2000/svg" width="48.597" height="68.115" viewBox="0 0 48.597 68.115">
  <g id="Group_12" data-name="Group 12" transform="translate(-399.691 -646.198)">
    <ellipse id="Ellipse_7" data-name="Ellipse 7" cx="6.505" cy="6.505" rx="6.505" ry="6.505" transform="translate(414.679 661.19)" fill="#1c3b71"/>
    <g id="Group_6" data-name="Group 6">
      <path id="Path_74" data-name="Path 74" d="M433.652,667.7a12.467,12.467,0,1,1-12.467-12.467A12.466,12.466,0,0,1,433.652,667.7Z" fill="none" stroke="#1c3b71" stroke-width="1.084"/>
      <path id="Path_75" data-name="Path 75" d="M431.66,650.56a21.14,21.14,0,0,1-8.669,39.471" fill="none" stroke="#1c3b71" stroke-width="1.084"/>
      <ellipse id="Ellipse_8" data-name="Ellipse 8" cx="4.336" cy="4.336" rx="4.336" ry="4.336" transform="translate(427.76 646.198)" fill="#1c3b71"/>
      <path id="Path_76" data-name="Path 76" d="M412.646,687.145a21.14,21.14,0,0,1,5.15-40.082" fill="none" stroke="#1c3b71" stroke-width="1.084"/>
      <ellipse id="Ellipse_9" data-name="Ellipse 9" cx="4.336" cy="4.336" rx="4.336" ry="4.336" transform="matrix(-0.996, 0.088, -0.088, -0.996, 416.916, 691.146)" fill="#1c3b71"/>
      <path id="Path_77" data-name="Path 77" d="M416.848,672.032a4.337,4.337,0,0,1,8.673,0v42.28h-8.673Z" fill="#1c3b71"/>
      <path id="Path_78" data-name="Path 78" d="M424.437,691.547a4.336,4.336,0,0,1,8.672,0v22.766h-8.672Z" fill="#1c3b71"/>
      <path id="Path_79" data-name="Path 79" d="M432.025,691.547a4.337,4.337,0,0,1,8.673,0v22.766h-8.673Z" fill="#1c3b71"/>
      <path id="Path_80" data-name="Path 80" d="M439.615,691.547a4.337,4.337,0,0,1,8.673,0v22.766h-8.673Z" fill="#1c3b71"/>
      <path id="Path_81" data-name="Path 81" d="M406.007,700.723a4.337,4.337,0,0,1,7.511-4.337l10.35,17.927H413.853Z" fill="#1c3b71"/>
    </g>
  </g>
</svg>
