<svg xmlns="http://www.w3.org/2000/svg" width="53.323" height="73.001" viewBox="0 0 53.323 73.001">
  <g id="Group_4" data-name="Group 4" transform="translate(-692.933 -532.225)">
    <path id="Path_35" data-name="Path 35" d="M728.559,544.153H697.005a4.077,4.077,0,0,0-4.072,4.072v52.93a4.077,4.077,0,0,0,4.072,4.071h31.554a4.075,4.075,0,0,0,4.071-4.071v-52.93a4.075,4.075,0,0,0-4.071-4.072Zm0,3.479v53.523H697.005V547.632Z" fill="#1c3b71"/>
    <path id="Path_36" data-name="Path 36" d="M714.816,593.011h-4.071v4.071h4.071Z" fill="#1c3b71"/>
    <circle id="Ellipse_1" data-name="Ellipse 1" cx="20.375" cy="20.375" r="20.375" transform="translate(705.506 532.225)" fill="#1c3b71"/>
    <path id="Path_37" data-name="Path 37" d="M714.451,545.54a.393.393,0,0,1,.392-.393h3.19a.393.393,0,0,1,.393.393v18.1a.393.393,0,0,1-.393.393h-1.127a2.455,2.455,0,0,1-2.455-2.455Z" fill="#fff"/>
    <rect id="Rectangle_8" data-name="Rectangle 8" width="3.976" height="10.933" rx="0.393" transform="translate(720.414 555.086)" fill="#fff"/>
    <rect id="Rectangle_9" data-name="Rectangle 9" width="3.976" height="17.89" rx="0.393" transform="translate(726.377 548.128)" fill="#fff"/>
    <path id="Path_38" data-name="Path 38" d="M732.34,538.583a.393.393,0,0,1,.393-.393h3.19a.392.392,0,0,1,.392.393v23.68a1.767,1.767,0,0,1-1.767,1.768h-1.815a.393.393,0,0,1-.393-.393Z" fill="#fff"/>
  </g>
</svg>
