<svg xmlns="http://www.w3.org/2000/svg" width="44.52" height="45.116" viewBox="0 0 44.52 45.116">
  <g id="Group_8" data-name="Group 8" transform="translate(-121.875 -762.447)">
    <path id="Path_55" data-name="Path 55" d="M148.828,785.707a2.186,2.186,0,0,0-2.185,2.186v2.185h4.371v-2.185A2.186,2.186,0,0,0,148.828,785.707Zm-7.285,4.372a1.457,1.457,0,0,0-1.457,1.457v4.371h0v4.371h0v5.828a1.457,1.457,0,0,0,1.457,1.457h14.57a1.457,1.457,0,0,0,1.457-1.457v-14.57a1.457,1.457,0,0,0-1.457-1.457Zm18.213,6.557a2.186,2.186,0,0,1,0,4.371H157.57v-4.371Z" fill="#1c3b71" fill-rule="evenodd"/>
    <path id="Path_56" data-name="Path 56" d="M141.543,795.907a2.914,2.914,0,1,1,0,5.828h-1.457v-5.828Z" fill="#fff"/>
    <path id="Path_57" data-name="Path 57" d="M145.915,806.1a2.914,2.914,0,1,1,5.828,0v1.457h-5.828Z" fill="#fff"/>
    <path id="Path_58" data-name="Path 58" d="M130.616,767.5a2.186,2.186,0,0,0-2.185,2.186v2.184h-5.1a1.457,1.457,0,0,0-1.457,1.457V777.7h0v4.371h0v5.828a1.457,1.457,0,0,0,1.457,1.457H137.9a1.456,1.456,0,0,0,1.456-1.457v-5.1h2.185a2.186,2.186,0,0,0,0-4.371h-2.185v-5.1a1.456,1.456,0,0,0-1.456-1.457h-5.1v-2.184A2.186,2.186,0,0,0,130.616,767.5Z" fill="#1c3b71" fill-rule="evenodd"/>
    <path id="Path_59" data-name="Path 59" d="M123.332,777.694a2.914,2.914,0,0,1,0,5.828h-1.457v-5.828Z" fill="#fff"/>
    <path id="Path_60" data-name="Path 60" d="M127.7,787.893a2.914,2.914,0,0,1,5.828,0v1.457H127.7Z" fill="#fff"/>
    <path id="Path_61" data-name="Path 61" d="M163.908,764.936a2.185,2.185,0,0,0-3.091,0l-1.545,1.545-3.607-3.607a1.456,1.456,0,0,0-2.06,0l-10.3,10.3a1.458,1.458,0,0,0,0,2.061l10.3,10.3a1.456,1.456,0,0,0,2.06,0l10.3-10.3a1.458,1.458,0,0,0,0-2.061l-3.6-3.605,1.545-1.545A2.184,2.184,0,0,0,163.908,764.936Zm0,15.453a2.186,2.186,0,1,1-3.091,3.091l-1.545-1.546,3.09-3.09Z" fill="#1c3b71" fill-rule="evenodd"/>
    <path id="Path_62" data-name="Path 62" d="M151.544,766.995a2.914,2.914,0,0,1-4.121,4.121l-1.03-1.03,4.121-4.121Z" fill="#fff"/>
    <path id="Path_63" data-name="Path 63" d="M147.424,777.3a2.914,2.914,0,0,1,4.121,4.121l-1.03,1.03-4.121-4.121Z" fill="#fff"/>
    <path id="Path_64" data-name="Path 64" d="M130.616,785.707a2.186,2.186,0,0,0-2.185,2.186v2.185H132.8v-2.185A2.186,2.186,0,0,0,130.616,785.707Zm-7.283,4.372a1.457,1.457,0,0,0-1.457,1.457v4.371h0v4.371h0v5.828a1.457,1.457,0,0,0,1.457,1.457H137.9a1.456,1.456,0,0,0,1.456-1.457v-5.1h2.185a2.186,2.186,0,0,0,0-4.371h-2.185v-5.1a1.457,1.457,0,0,0-1.456-1.457Z" fill="#1c3b71" fill-rule="evenodd"/>
    <path id="Path_65" data-name="Path 65" d="M123.332,795.907a2.914,2.914,0,0,1,0,5.828h-1.457v-5.828Z" fill="#fff"/>
    <path id="Path_66" data-name="Path 66" d="M127.7,806.106a2.914,2.914,0,0,1,5.828,0v1.457H127.7Z" fill="#fff"/>
  </g>
</svg>
