<svg xmlns="http://www.w3.org/2000/svg" width="72.365" height="68.657" viewBox="0 0 72.365 68.657">
  <g id="Group_9" data-name="Group 9" transform="translate(-385.412 -746.154)">
    <path id="Path_68" data-name="Path 68" d="M438.224,778.746a1.056,1.056,0,0,0-1.122-.986l-.033,0a16.8,16.8,0,0,0-.448-2.267l.031-.01a1.055,1.055,0,0,0,.661-1.34,17.83,17.83,0,0,0-.9-2.171A1.057,1.057,0,0,0,435,771.5l-.03.015a17.033,17.033,0,0,0-1.285-1.92l.025-.021a1.056,1.056,0,0,0,.1-1.491,18.08,18.08,0,0,0-1.661-1.661,1.057,1.057,0,0,0-1.491.1l-.021.025a16.951,16.951,0,0,0-1.92-1.285l.015-.03a1.056,1.056,0,0,0-.479-1.415,18,18,0,0,0-2.171-.9,1.057,1.057,0,0,0-1.34.661c0,.01-.007.021-.01.032a16.8,16.8,0,0,0-2.267-.449l0-.033a1.056,1.056,0,0,0-.986-1.122q-.583-.038-1.175-.038t-1.175.038a1.057,1.057,0,0,0-.986,1.122l0,.033a16.8,16.8,0,0,0-2.267.449.3.3,0,0,0-.01-.032,1.056,1.056,0,0,0-1.34-.661,18,18,0,0,0-2.171.9,1.057,1.057,0,0,0-.479,1.415l.015.03a16.949,16.949,0,0,0-1.92,1.285l-.021-.025a1.057,1.057,0,0,0-1.491-.1,18.08,18.08,0,0,0-1.661,1.661,1.057,1.057,0,0,0,.1,1.491l.025.021a17.038,17.038,0,0,0-1.285,1.92l-.03-.015a1.057,1.057,0,0,0-1.415.479,17.835,17.835,0,0,0-.9,2.171,1.055,1.055,0,0,0,.661,1.34l.031.01a16.8,16.8,0,0,0-.448,2.267l-.033,0a1.056,1.056,0,0,0-1.122.986q-.037.584-.038,1.175t.038,1.175a1.056,1.056,0,0,0,1.122.986c.011,0,.022,0,.033,0a16.768,16.768,0,0,0,.448,2.267l-.031.01a1.056,1.056,0,0,0-.661,1.34,17.831,17.831,0,0,0,.9,2.171,1.056,1.056,0,0,0,1.415.479l.03-.015a16.945,16.945,0,0,0,1.285,1.92l-.025.022a1.057,1.057,0,0,0-.1,1.491,18.07,18.07,0,0,0,1.661,1.66,1.056,1.056,0,0,0,1.491-.1l.021-.025a16.949,16.949,0,0,0,1.92,1.286l-.015.029a1.057,1.057,0,0,0,.479,1.415,17.67,17.67,0,0,0,2.171.9,1.055,1.055,0,0,0,1.34-.661c0-.01.007-.021.01-.031a16.79,16.79,0,0,0,2.267.448l0,.033a1.056,1.056,0,0,0,.986,1.122c.389.026.781.038,1.175.038s.786-.012,1.175-.038a1.056,1.056,0,0,0,.986-1.122l0-.033a16.79,16.79,0,0,0,2.267-.448l.01.031a1.056,1.056,0,0,0,1.34.661,17.668,17.668,0,0,0,2.171-.9,1.056,1.056,0,0,0,.479-1.415l-.015-.029a16.951,16.951,0,0,0,1.92-1.286l.021.025a1.056,1.056,0,0,0,1.491.1,18.07,18.07,0,0,0,1.661-1.66,1.056,1.056,0,0,0-.1-1.491l-.025-.022a16.94,16.94,0,0,0,1.285-1.92l.03.015a1.056,1.056,0,0,0,1.415-.479,17.826,17.826,0,0,0,.9-2.171,1.056,1.056,0,0,0-.661-1.34l-.031-.01a16.768,16.768,0,0,0,.448-2.267c.011,0,.022,0,.033,0a1.056,1.056,0,0,0,1.122-.986q.037-.584.038-1.175T438.224,778.746Z" fill="#1c3b71" stroke="#1c3b71" stroke-linecap="round" stroke-width="2.113" stroke-dasharray="2.11 4.23"/>
    <path id="Path_69" data-name="Path 69" d="M411.851,780.766l6.339,5.494L428.755,775.7" fill="none" stroke="#fff" stroke-linecap="round" stroke-width="4.226"/>
    <path id="Path_70" data-name="Path 70" d="M419.246,748.226a32.753,32.753,0,0,1,31.5,23.77" fill="none" stroke="#1c3b71" stroke-width="2.113" stroke-dasharray="1.06 4.23"/>
    <path id="Path_71" data-name="Path 71" d="M402.011,753.084l-.587-.879Zm-11.983,14.6.976.4Zm-1.851,18.8,1.036-.206h0Zm8.9,16.658-.747.747Zm16.659,8.905.206-1.037Zm18.8-1.852-.4-.976Zm14.6-11.983-.879-.587Zm4.33-10.9,1,.348Zm2.641-11.093-8.243,8.993,11.91,2.642Zm-52.686-24.017a33.6,33.6,0,0,0-12.372,15.076l1.952.808A31.486,31.486,0,0,1,402.6,753.962Zm-12.372,15.076a33.6,33.6,0,0,0-1.911,19.408l2.072-.412A31.481,31.481,0,0,1,391,768.089Zm-1.911,19.408a33.585,33.585,0,0,0,9.193,17.2l1.494-1.494a31.482,31.482,0,0,1-8.615-16.117Zm9.193,17.2a33.589,33.589,0,0,0,17.2,9.194l.412-2.073a31.47,31.47,0,0,1-16.118-8.615Zm17.2,9.194a33.587,33.587,0,0,0,19.408-1.912l-.809-1.952a31.47,31.47,0,0,1-18.187,1.791Zm19.408-1.912A33.588,33.588,0,0,0,448.017,798.8l-1.757-1.174a31.468,31.468,0,0,1-14.127,11.594Zm-19.409-63.981a33.6,33.6,0,0,0-12.109,5.016l1.174,1.757a31.467,31.467,0,0,1,11.348-4.7ZM448.017,798.8a24.617,24.617,0,0,0,2.121-4.575c.723-1.908,1.5-4.183,2.328-6.56l-1.995-.7c-.838,2.4-1.6,4.633-2.309,6.507a22.855,22.855,0,0,1-1.9,4.15Zm4.449-11.135c.214-.613.413-1.236.6-1.858l-2.025-.6c-.176.6-.365,1.185-.567,1.763Z" fill="#1c3b71"/>
    <path id="Path_72" data-name="Path 72" d="M452,786.483a32.536,32.536,0,1,1-38.257-38.257" fill="none" stroke="#1c3b71" stroke-width="4.226"/>
  </g>
</svg>
