<svg xmlns="http://www.w3.org/2000/svg" width="60.073" height="79.87" viewBox="0 0 60.073 79.87">
  <g id="Group_10" data-name="Group 10" transform="translate(-685.367 -745.226)">
    <ellipse id="Ellipse_6" data-name="Ellipse 6" cx="20.742" cy="20.742" rx="20.742" ry="20.742" transform="translate(743.415 806.703) rotate(180)" fill="none" stroke="#1c3b71" stroke-width="4.05"/>
    <path id="Path_43" data-name="Path 43" d="M708.508,786.524a.506.506,0,0,1,.507-.506h4.179a.506.506,0,0,1,.506.506v16.788a.507.507,0,0,1-.506.506h-1.521a3.165,3.165,0,0,1-3.165-3.164Z" fill="#1c3b71"/>
    <rect id="Rectangle_10" data-name="Rectangle 10" width="5.047" height="28.098" rx="0.506" transform="translate(716.311 778.362)" fill="#1c3b71"/>
    <rect id="Rectangle_11" data-name="Rectangle 11" width="5.192" height="48.209" rx="0.506" transform="translate(724.083 758.574)" fill="#1c3b71"/>
    <path id="Path_44" data-name="Path 44" d="M732.242,749.438a.507.507,0,0,1,.506-.506h3.438a.506.506,0,0,1,.506.506V802.28a2.278,2.278,0,0,1-2.278,2.278h-1.666a.507.507,0,0,1-.506-.506Z" fill="#1c3b71"/>
    <line id="Line_1" data-name="Line 1" x2="27.453" transform="translate(707.643 802.82) rotate(135)" fill="none" stroke="#1c3b71" stroke-linecap="round" stroke-width="4.05"/>
    <path id="Path_46" data-name="Path 46" d="M695.653,750.285l1.04,7.612,7.613,1.041-7.613,1.04-1.04,7.612-1.04-7.612L687,758.938l7.613-1.041Z" fill="#1c3b71"/>
    <path id="Path_47" data-name="Path 47" d="M703.24,747.09l.544,3.982,3.982.544-3.982.544-.544,3.982-.544-3.982-3.982-.544,3.982-.544Z" fill="#1c3b71"/>
    <path id="Path_48" data-name="Path 48" d="M698.581,745.226l.208,1.523,1.523.208-1.523.208-.208,1.522-.208-1.522-1.522-.208,1.522-.208Z" fill="#1c3b71"/>
    <path id="Path_45" data-name="Path 45" d="M701.9,786.076a20.741,20.741,0,0,0,41.483,0" fill="none" stroke="#1c3b71" stroke-width="4.05"/>
  </g>
</svg>
