<svg width="201" height="201" viewBox="0 0 201 201" fill="none" xmlns="http://www.w3.org/2000/svg">
<path d="M100.321 67.0308C106.156 67.0308 111.571 68.5067 116.626 71.4901C121.712 74.444 125.751 78.5115 128.773 83.6945C131.825 88.8785 133.321 94.4229 133.321 100.39C133.321 106.387 131.825 111.931 128.773 117.084C125.751 122.237 121.683 126.306 116.626 129.289C111.571 132.242 106.126 133.748 100.321 133.748C94.248 133.748 88.6837 132.272 83.6271 129.289C78.5716 126.306 74.5621 122.237 71.6007 117.084C68.6393 111.901 67.1433 106.356 67.1433 100.39C67.1433 94.4229 68.6393 88.8481 71.6007 83.6945C74.5327 78.5419 78.5716 74.4734 83.6271 71.4901C88.6837 68.5372 94.248 67.0308 100.321 67.0308Z" fill="#1C3B71"/>
<path fill-rule="evenodd" clip-rule="evenodd" d="M171.04 29.7847C151.654 10.2576 127.899 0.343262 100.465 0.343262C73.0006 0.343262 49.1864 10.2275 29.6802 29.7552C10.1731 49.2824 0.270264 72.8173 0.270264 99.6074C0.270264 126.337 9.99434 150.053 29.1714 170.063C48.4379 190.193 71.8632 200.408 98.7596 200.408H102.17C129.335 200.408 152.761 190.253 171.789 170.243C190.696 150.355 200.27 126.669 200.27 99.8186C200.24 72.8781 190.426 49.3119 171.04 29.7847ZM168.198 100.572C168.198 119.496 161.706 135.408 148.333 149.239C135.02 162.98 119.493 169.671 100.794 169.671C82.0656 169.671 66.2988 162.951 52.5967 149.149C38.924 135.347 32.2527 119.526 32.2527 100.752C32.2527 81.948 38.924 65.9766 52.6566 51.9339C66.3587 37.9216 82.0352 31.0809 100.585 31.0809C119.133 31.0809 134.691 37.8312 148.124 51.6933C161.646 65.6456 168.198 81.617 168.198 100.572Z" fill="#1C3B71"/>
</svg>
